# xmcd
#
# Track frame offsets: 
#        150
#        42480
#        74221
#        108199
#        157260
#        177837
#        216230
#        242355
#        269147
#        320853
#
# Disc length: 4439 seconds
#
# Revision: 1
# Processed by: cddbd v1.5.1PL0 Copyright (c) Steve Scherf et al.
# Submitted via: ExactAudioCopy v0.95b3
#
DISCID=a111550a
DTITLE=Various Artist - Jazz Vuiko Band Vol 1 ...
DYEAR=2002
DGENRE=Jazz
TTITLE0=Super Vuiko Blues
TTITLE1=Cotton Tail
TTITLE2=Nothing Personal
TTITLE3=The SummerKnows
TTITLE4=Watts
TTITLE5=Night Train
TTITLE6=C Jam Blues
TTITLE7=Walkin'
TTITLE8=Misty
TTITLE9=2nd Crusade
EXTD=YEAR: 2002
EXTT0=
EXTT1=
EXTT2=
EXTT3=
EXTT4=
EXTT5=
EXTT6=
EXTT7=
EXTT8=
EXTT9=
PLAYORDER=
